<svg width="1816" height="577" viewBox="0 0 1816 577" fill="none" xmlns="http://www.w3.org/2000/svg">
<path d="M329.826 152.827V423H264.015V260.973L203.592 423H150.481L89.6727 260.589V423H23.8614V152.827H101.603L177.421 339.87L252.469 152.827H329.826ZM364.067 315.239C364.067 293.173 368.172 273.802 376.382 257.125C384.849 240.448 396.267 227.619 410.635 218.639C425.003 209.659 441.039 205.169 458.742 205.169C473.88 205.169 487.094 208.247 498.383 214.405C509.929 220.563 518.781 228.645 524.939 238.651V208.247H590.75V423H524.939V392.596C518.524 402.602 509.544 410.684 497.998 416.842C486.709 423 473.496 426.079 458.358 426.079C440.911 426.079 425.003 421.589 410.635 412.609C396.267 403.372 384.849 390.415 376.382 373.738C368.172 356.804 364.067 337.304 364.067 315.239ZM524.939 315.624C524.939 299.203 520.32 286.246 511.084 276.753C502.104 267.26 491.071 262.513 477.986 262.513C464.9 262.513 453.739 267.26 444.503 276.753C435.523 285.989 431.032 298.818 431.032 315.239C431.032 331.66 435.523 344.745 444.503 354.495C453.739 363.988 464.9 368.735 477.986 368.735C491.071 368.735 502.104 363.988 511.084 354.495C520.32 345.001 524.939 332.044 524.939 315.624Z" fill="#329542"/>
<path d="M1040.7 287.529C1040.7 260.845 1046.47 237.112 1058.02 216.33C1069.57 195.29 1085.6 178.998 1106.13 167.452C1126.91 155.65 1150.39 149.749 1176.56 149.749C1208.63 149.749 1236.08 158.215 1258.92 175.149C1281.75 192.083 1297.02 215.175 1304.72 244.424H1232.36C1226.97 233.135 1219.28 224.54 1209.27 218.639C1199.52 212.738 1188.36 209.787 1175.79 209.787C1155.52 209.787 1139.1 216.843 1126.52 230.954C1113.95 245.066 1107.67 263.924 1107.67 287.529C1107.67 311.134 1113.95 329.992 1126.52 344.103C1139.1 358.215 1155.52 365.271 1175.79 365.271C1188.36 365.271 1199.52 362.32 1209.27 356.419C1219.28 350.518 1226.97 341.923 1232.36 330.633H1304.72C1297.02 359.883 1281.75 382.974 1258.92 399.908C1236.08 416.586 1208.63 424.924 1176.56 424.924C1150.39 424.924 1126.91 419.151 1106.13 407.606C1085.6 395.803 1069.57 379.511 1058.02 358.728C1046.47 337.946 1040.7 314.213 1040.7 287.529ZM1442.77 426.079C1421.73 426.079 1402.75 421.589 1385.81 412.609C1369.14 403.629 1355.92 390.8 1346.17 374.123C1336.68 357.445 1331.93 337.946 1331.93 315.624C1331.93 293.558 1336.81 274.187 1346.56 257.51C1356.31 240.576 1369.65 227.619 1386.58 218.639C1403.52 209.659 1422.5 205.169 1443.54 205.169C1464.58 205.169 1483.57 209.659 1500.5 218.639C1517.44 227.619 1530.78 240.576 1540.53 257.51C1550.28 274.187 1555.15 293.558 1555.15 315.624C1555.15 337.689 1550.15 357.189 1540.14 374.123C1530.39 390.8 1516.92 403.629 1499.73 412.609C1482.8 421.589 1463.81 426.079 1442.77 426.079ZM1442.77 369.119C1455.34 369.119 1465.99 364.501 1474.72 355.264C1483.7 346.028 1488.19 332.814 1488.19 315.624C1488.19 298.433 1483.82 285.22 1475.1 275.983C1466.63 266.746 1456.11 262.128 1443.54 262.128C1430.71 262.128 1420.07 266.746 1411.6 275.983C1403.13 284.963 1398.9 298.177 1398.9 315.624C1398.9 332.814 1403 346.028 1411.21 355.264C1419.68 364.501 1430.2 369.119 1442.77 369.119ZM1686.67 361.422L1733.23 208.247H1803.28L1727.08 423H1645.87L1569.67 208.247H1640.1L1686.67 361.422Z" fill="#329542"/>
<path fill-rule="evenodd" clip-rule="evenodd" d="M864.785 361.502C864.344 362.264 863.894 363.018 863.437 363.764L863.486 363.746C842.374 403.312 768.212 462.885 639.261 518.448C639.261 484.66 637.8 454.854 636.475 427.796C633.159 360.126 630.686 309.648 654.006 257.06C655.861 252.387 658.077 247.799 660.664 243.331C691.145 190.681 761.548 174.454 817.914 207.086C874.281 239.718 895.265 308.852 864.785 361.502ZM730.157 362.161C760.62 379.797 799.082 370.313 816.064 340.979C833.047 311.645 822.119 273.568 791.656 255.932C761.194 238.297 722.732 247.78 705.75 277.114C688.767 306.449 699.695 344.525 730.157 362.161Z" fill="#329542"/>
</svg>
