<svg width="25" height="26" viewBox="0 0 25 26" fill="none" xmlns="http://www.w3.org/2000/svg">
<path d="M12.5513 24.7536C18.9026 24.7439 24.0434 19.5873 24.0337 13.236C24.024 6.88476 18.8674 1.74392 12.5161 1.75364C6.16483 1.76336 1.02399 6.91996 1.03371 13.2712C1.04343 19.6225 6.20003 24.7633 12.5513 24.7536Z" stroke="white" stroke-width="1.53333" stroke-linecap="round" stroke-linejoin="round"/>
<path d="M18.6765 19.3776L18.6742 17.8443C18.6729 17.0309 18.3486 16.2514 17.7727 15.6772C17.1967 15.103 16.4162 14.7811 15.6028 14.7823L9.46949 14.7917C8.65617 14.7929 7.87664 15.1172 7.30241 15.6932C6.72818 16.2692 6.40628 17.0497 6.40752 17.863L6.40987 19.3964" stroke="white" stroke-width="1.53333" stroke-linecap="round" stroke-linejoin="round"/>
<path d="M12.5311 11.7203C14.2248 11.7177 15.5957 10.3426 15.5931 8.64895C15.5905 6.95528 14.2154 5.58439 12.5217 5.58698C10.8281 5.58957 9.45718 6.96467 9.45977 8.65834C9.46236 10.352 10.8375 11.7229 12.5311 11.7203Z" stroke="white" stroke-width="1.53333" stroke-linecap="round" stroke-linejoin="round"/>
</svg>
