<svg width="19" height="23" viewBox="0 0 19 23" fill="none" xmlns="http://www.w3.org/2000/svg">
<path d="M13.0224 3.91669L15.0224 3.91363C15.5529 3.91282 16.0619 4.12276 16.4376 4.49726C16.8132 4.87175 17.0247 5.38014 17.0255 5.91057L17.0469 19.9106C17.0477 20.441 16.8378 20.95 16.4633 21.3257C16.0888 21.7013 15.5804 21.9128 15.05 21.9136L3.05 21.932C2.51957 21.9328 2.01054 21.7229 1.6349 21.3484C1.25925 20.9739 1.04776 20.4655 1.04695 19.935L1.02552 5.93506C1.02471 5.40462 1.23464 4.89559 1.60914 4.51995C1.98364 4.1443 2.49203 3.93281 3.02246 3.932L5.02246 3.92894" stroke="white" stroke-width="2" stroke-linecap="round" stroke-linejoin="round"/>
<path d="M12.0195 1.91824L6.01953 1.92742C5.46725 1.92827 5.02022 2.37667 5.02106 2.92895L5.02412 4.92895C5.02497 5.48124 5.47337 5.92827 6.02565 5.92742L12.0256 5.91824C12.5779 5.91739 13.025 5.46899 13.0241 4.91671L13.0211 2.91671C13.0202 2.36443 12.5718 1.9174 12.0195 1.91824Z" stroke="white" stroke-width="2" stroke-linecap="round" stroke-linejoin="round"/>
</svg>
